<svg width="49" height="48" viewBox="0 0 49 48" fill="none" xmlns="http://www.w3.org/2000/svg">
<path d="M26.3222 38.09H22.6786C22.5162 38.09 22.3605 38.0266 22.2457 37.9138C22.1309 37.801 22.0664 37.6479 22.0664 37.4884V8.42949C22.0664 7.79506 22.3228 7.18661 22.7793 6.738C23.2358 6.28938 23.8549 6.03735 24.5004 6.03735C25.1459 6.03735 25.765 6.28938 26.2215 6.738C26.6779 7.18661 26.9344 7.79506 26.9344 8.42949V37.489C26.9342 37.6484 26.8696 37.8013 26.7549 37.914C26.6401 38.0267 26.4845 38.09 26.3222 38.09ZM23.2907 36.8867H25.71V8.42949C25.71 8.11419 25.5826 7.8118 25.3557 7.58885C25.1289 7.3659 24.8212 7.24064 24.5004 7.24064C24.1796 7.24064 23.8719 7.3659 23.645 7.58885C23.4182 7.8118 23.2907 8.11419 23.2907 8.42949V36.8867Z" fill="#D0A144"/>
<path d="M9.74643 14.103H7.64486C7.14624 14.0942 6.67107 13.8934 6.32162 13.5437C5.97217 13.194 5.77637 12.7235 5.77637 12.2334C5.77637 11.7433 5.97217 11.2727 6.32162 10.9231C6.67107 10.5734 7.14624 10.3726 7.64486 10.3638H9.4483C9.61066 10.3638 9.76637 10.4272 9.88117 10.54C9.99598 10.6528 10.0605 10.8058 10.0605 10.9654C10.0605 11.125 9.99598 11.278 9.88117 11.3908C9.76637 11.5037 9.61066 11.5671 9.4483 11.5671H7.64486C7.46857 11.5723 7.30129 11.6448 7.17847 11.7691C7.05564 11.8935 6.98695 12.06 6.98695 12.2334C6.98695 12.4067 7.05564 12.5732 7.17847 12.6976C7.30129 12.822 7.46857 12.8945 7.64486 12.8997H9.74643C9.90879 12.8997 10.0645 12.9631 10.1793 13.0759C10.2941 13.1888 10.3586 13.3418 10.3586 13.5013C10.3586 13.6609 10.2941 13.8139 10.1793 13.9268C10.0645 14.0396 9.90879 14.103 9.74643 14.103Z" fill="#D0A144"/>
<path d="M22.6785 14.103H13.4501C13.2877 14.103 13.132 14.0396 13.0172 13.9268C12.9024 13.8139 12.8379 13.6609 12.8379 13.5013C12.8379 13.3418 12.9024 13.1888 13.0172 13.0759C13.132 12.9631 13.2877 12.8997 13.4501 12.8997H22.0663V11.5671H13.7476C13.5852 11.5671 13.4295 11.5037 13.3147 11.3908C13.1999 11.278 13.1354 11.125 13.1354 10.9654C13.1354 10.8058 13.1999 10.6528 13.3147 10.54C13.4295 10.4272 13.5852 10.3638 13.7476 10.3638H22.6785C22.8408 10.3638 22.9966 10.4272 23.1114 10.54C23.2262 10.6528 23.2907 10.8058 23.2907 10.9654V13.5013C23.2907 13.6609 23.2262 13.8139 23.1114 13.9268C22.9966 14.0396 22.8408 14.103 22.6785 14.103Z" fill="#D0A144"/>
<path d="M35.4171 14.103H26.3221C26.1598 14.103 26.0041 14.0396 25.8893 13.9268C25.7745 13.8139 25.71 13.6609 25.71 13.5013V10.9654C25.71 10.8058 25.7745 10.6528 25.8893 10.54C26.0041 10.4272 26.1598 10.3638 26.3221 10.3638H35.1196C35.282 10.3638 35.4377 10.4272 35.5525 10.54C35.6673 10.6528 35.7318 10.8058 35.7318 10.9654C35.7318 11.125 35.6673 11.278 35.5525 11.3908C35.4377 11.5037 35.282 11.5671 35.1196 11.5671H26.9343V12.8997H35.4171C35.5795 12.8997 35.7352 12.9631 35.85 13.0759C35.9648 13.1888 36.0293 13.3418 36.0293 13.5013C36.0293 13.6609 35.9648 13.8139 35.85 13.9268C35.7352 14.0396 35.5795 14.103 35.4171 14.103Z" fill="#D0A144"/>
<path d="M41.3492 14.103H39.2538C39.0914 14.103 38.9357 14.0396 38.8209 13.9268C38.7061 13.8139 38.6416 13.6609 38.6416 13.5013C38.6416 13.3418 38.7061 13.1888 38.8209 13.0759C38.9357 12.9631 39.0914 12.8997 39.2538 12.8997H41.3492C41.5255 12.8945 41.6928 12.822 41.8156 12.6976C41.9384 12.5732 42.0071 12.4067 42.0071 12.2334C42.0071 12.06 41.9384 11.8935 41.8156 11.7691C41.6928 11.6448 41.5255 11.5723 41.3492 11.5671H39.5556C39.3932 11.5671 39.2375 11.5037 39.1227 11.3908C39.0079 11.278 38.9434 11.125 38.9434 10.9654C38.9434 10.8058 39.0079 10.6528 39.1227 10.54C39.2375 10.4272 39.3932 10.3638 39.5556 10.3638H41.3492C41.8478 10.3726 42.323 10.5734 42.6725 10.9231C43.0219 11.2727 43.2177 11.7433 43.2177 12.2334C43.2177 12.7235 43.0219 13.194 42.6725 13.5437C42.323 13.8934 41.8478 14.0942 41.3492 14.103Z" fill="#D0A144"/>
<path d="M32.2528 41.9623H16.7466C16.6537 41.9622 16.562 41.9414 16.4785 41.9013C16.395 41.8613 16.3218 41.8031 16.2646 41.7311C16.2074 41.6592 16.1676 41.5754 16.1482 41.486C16.1288 41.3967 16.1304 41.3043 16.1528 41.2156C16.4052 40.0258 17.0552 38.9531 17.9994 38.1681C18.9437 37.3832 20.1278 36.9311 21.3636 36.8838H27.6359C28.8716 36.9311 30.0558 37.3832 31 38.1681C31.9442 38.9531 32.5942 40.0258 32.8466 41.2156C32.869 41.3043 32.8706 41.3967 32.8512 41.486C32.8318 41.5754 32.792 41.6592 32.7348 41.7311C32.6776 41.8031 32.6045 41.8613 32.5209 41.9013C32.4374 41.9414 32.3457 41.9622 32.2528 41.9623ZM17.5932 40.759H31.4062C31.1148 39.9988 30.6016 39.34 29.9309 38.8653C29.2602 38.3905 28.4618 38.1208 27.6359 38.0901H21.3636C20.5376 38.1208 19.7393 38.3905 19.0685 38.8653C18.3978 39.34 17.8846 39.9988 17.5932 40.759Z" fill="#D0A144"/>
<path d="M33.9114 41.9621H15.0897C14.9273 41.9621 14.7716 41.8987 14.6568 41.7859C14.542 41.673 14.4775 41.52 14.4775 41.3604C14.4775 41.2009 14.542 41.0478 14.6568 40.935C14.7716 40.8222 14.9273 40.7588 15.0897 40.7588H33.9114C34.0738 40.7588 34.2295 40.8222 34.3443 40.935C34.4591 41.0478 34.5236 41.2009 34.5236 41.3604C34.5236 41.52 34.4591 41.673 34.3443 41.7859C34.2295 41.8987 34.0738 41.9621 33.9114 41.9621Z" fill="#D0A144"/>
<path d="M45.3135 29.1887H29.4944C29.392 29.1888 29.2911 29.1636 29.2011 29.1154C29.1111 29.0672 29.0349 28.9976 28.9794 28.9129C28.9239 28.8282 28.8909 28.7312 28.8835 28.6308C28.876 28.5303 28.8943 28.4297 28.9368 28.338L35.6584 13.7938C35.6915 13.7217 35.7387 13.6566 35.7974 13.6025C35.8561 13.5483 35.9252 13.506 36.0005 13.4781C36.0759 13.4502 36.1561 13.4372 36.2366 13.4398C36.3171 13.4424 36.3962 13.4606 36.4696 13.4933C36.5429 13.526 36.6089 13.5727 36.6639 13.6305C36.7188 13.6884 36.7617 13.7563 36.7899 13.8304C36.818 13.9046 36.8311 13.9834 36.8282 14.0625C36.8253 14.1416 36.8066 14.2194 36.7731 14.2914L30.4445 27.9854H44.3609L38.0379 14.2914C38.0047 14.2194 37.9862 14.1417 37.9836 14.0627C37.9809 13.9837 37.9941 13.905 38.0224 13.831C38.0507 13.7571 38.0936 13.6893 38.1486 13.6316C38.2035 13.5739 38.2695 13.5274 38.3427 13.4948C38.416 13.4622 38.495 13.444 38.5754 13.4414C38.6558 13.4388 38.7359 13.4518 38.8111 13.4796C38.8864 13.5075 38.9553 13.5496 39.014 13.6036C39.0727 13.6576 39.12 13.7224 39.1532 13.7944L45.8681 28.3386C45.9103 28.43 45.9285 28.5303 45.9212 28.6305C45.9138 28.7306 45.8811 28.8273 45.8259 28.9118C45.7708 28.9963 45.695 29.0659 45.6055 29.1143C45.516 29.1626 45.4156 29.1882 45.3135 29.1887Z" fill="#D0A144"/>
<path d="M37.4668 36.8625H37.3394C32.4378 36.8625 28.8799 33.3826 28.8799 28.5875C28.8799 28.4279 28.9444 28.2749 29.0592 28.1621C29.174 28.0492 29.3297 27.9858 29.492 27.9858H45.3135C45.4759 27.9858 45.6316 28.0492 45.7464 28.1621C45.8612 28.2749 45.9257 28.4279 45.9257 28.5875C45.9257 33.3856 42.3678 36.8625 37.4668 36.8625ZM30.1256 29.1891C30.3987 33.0288 33.2875 35.6592 37.3394 35.6592H37.4668C41.5181 35.6592 44.4075 33.0288 44.6799 29.1891H30.1256Z" fill="#D0A144"/>
<path d="M37.4036 14.961C36.8083 14.9611 36.2264 14.7878 35.7314 14.4628C35.2364 14.1379 34.8506 13.6759 34.6228 13.1355C34.3949 12.595 34.3353 12.0003 34.4514 11.4265C34.5674 10.8527 34.8541 10.3256 35.275 9.91194C35.6959 9.49827 36.2322 9.21656 36.816 9.10246C37.3998 8.98835 38.005 9.04698 38.5549 9.27091C39.1048 9.49485 39.5748 9.87403 39.9055 10.3605C40.2361 10.847 40.4125 11.4189 40.4124 12.0039C40.4114 12.7879 40.0941 13.5395 39.53 14.0939C38.966 14.6482 38.2013 14.9601 37.4036 14.961ZM37.4036 10.2495C37.0505 10.2494 36.7053 10.3522 36.4117 10.5449C36.118 10.7376 35.8891 11.0116 35.7539 11.3321C35.6187 11.6527 35.5833 12.0055 35.6521 12.3458C35.7209 12.6862 35.8909 12.9989 36.1405 13.2443C36.3901 13.4897 36.7082 13.6568 37.0545 13.7246C37.4008 13.7923 37.7597 13.7576 38.0859 13.6249C38.4122 13.4921 38.691 13.2672 38.8872 12.9787C39.0833 12.6902 39.188 12.351 39.188 12.0039C39.1876 11.5389 38.9994 11.093 38.6649 10.7641C38.3304 10.4352 37.8768 10.2502 37.4036 10.2495Z" fill="#D0A144"/>
<path d="M19.5046 29.1886H3.68622C3.58379 29.1886 3.48301 29.1633 3.3931 29.1151C3.3032 29.0668 3.22704 28.9972 3.17161 28.9126C3.11618 28.8279 3.08325 28.7309 3.07583 28.6305C3.06841 28.5301 3.08674 28.4295 3.12914 28.3379L9.85197 13.7937C9.9191 13.6484 10.0422 13.5352 10.1943 13.479C10.3464 13.4229 10.5149 13.4284 10.6628 13.4944C10.8107 13.5604 10.9259 13.6814 10.983 13.8309C11.0401 13.9803 11.0345 14.1459 10.9673 14.2913L4.63875 27.9853H18.5552L12.2321 14.2913C12.1969 14.2191 12.1768 14.1407 12.1728 14.0608C12.1689 13.9808 12.1812 13.9009 12.2091 13.8257C12.2369 13.7505 12.2798 13.6815 12.3352 13.6227C12.3905 13.564 12.4572 13.5167 12.5314 13.4837C12.6056 13.4506 12.6857 13.4324 12.7671 13.4302C12.8485 13.4279 12.9296 13.4417 13.0055 13.4706C13.0815 13.4995 13.1508 13.5431 13.2094 13.5987C13.268 13.6543 13.3147 13.7208 13.3468 13.7943L20.0623 28.3385C20.1046 28.4301 20.1228 28.5308 20.1153 28.6311C20.1078 28.7315 20.0748 28.8284 20.0193 28.913C19.9638 28.9976 19.8876 29.0671 19.7977 29.1153C19.7078 29.1634 19.607 29.1886 19.5046 29.1886Z" fill="#D0A144"/>
<path d="M11.6605 36.8625H11.5332C6.63214 36.8625 3.07422 33.3856 3.07422 28.5875C3.07422 28.4279 3.13871 28.2749 3.25352 28.1621C3.36832 28.0492 3.52403 27.9858 3.68639 27.9858H19.5079C19.6702 27.9858 19.8259 28.0492 19.9407 28.1621C20.0555 28.2749 20.12 28.4279 20.12 28.5875C20.12 33.3856 16.5621 36.8625 11.6605 36.8625ZM4.31998 29.1891C4.59239 33.0288 7.48183 35.6592 11.5332 35.6592H11.6605C15.7124 35.6592 18.6012 33.0288 18.8743 29.1891H4.31998Z" fill="#D0A144"/>
<path d="M11.5973 14.961C11.0021 14.961 10.4202 14.7875 9.9253 14.4625C9.43039 14.1375 9.04467 13.6755 8.81691 13.1351C8.58915 12.5946 8.52959 11.9999 8.64576 11.4261C8.76193 10.8524 9.04861 10.3253 9.46955 9.91173C9.89048 9.49811 10.4268 9.21647 11.0106 9.10241C11.5944 8.98836 12.1995 9.04702 12.7494 9.27097C13.2993 9.49492 13.7692 9.87411 14.0998 10.3606C14.4305 10.847 14.6068 11.4189 14.6067 12.0039C14.6058 12.788 14.2884 13.5397 13.7242 14.0941C13.16 14.6484 12.3951 14.9602 11.5973 14.961ZM11.5973 10.2495C11.2443 10.2495 10.8991 10.3524 10.6056 10.5452C10.312 10.738 10.0832 11.012 9.94811 11.3326C9.813 11.6531 9.77765 12.0059 9.84653 12.3462C9.91541 12.6865 10.0854 12.9991 10.3351 13.2445C10.5847 13.4898 10.9028 13.6569 11.2491 13.7246C11.5953 13.7923 11.9542 13.7576 12.2804 13.6248C12.6066 13.492 12.8854 13.2671 13.0815 12.9786C13.2777 12.6901 13.3824 12.3509 13.3824 12.0039C13.3819 11.5388 13.1937 11.0928 12.859 10.7639C12.5244 10.435 12.0706 10.25 11.5973 10.2495Z" fill="#D0A144"/>
</svg>
