<svg width="24" height="27" viewBox="0 0 24 27" fill="none" xmlns="http://www.w3.org/2000/svg">
<g clip-path="url(#clip0_964_17367)">
<path d="M23.71 2.21597C23.575 2.07627 23.4045 1.97955 23.2185 1.93717C23.0325 1.8948 22.8388 1.90854 22.66 1.97677L0.660001 10.2968C0.470269 10.3716 0.306921 10.5047 0.191652 10.6784C0.0763829 10.8521 0.0146484 11.0581 0.0146484 11.2692C0.0146484 11.4802 0.0763829 11.6863 0.191652 11.8599C0.306921 12.0336 0.470269 12.1667 0.660001 12.2416L10.26 16.2352L14.1 26.2192C14.1721 26.4078 14.2958 26.5704 14.4557 26.6868C14.6157 26.8032 14.8049 26.8684 15 26.8744C15.2021 26.8701 15.3982 26.8022 15.5624 26.6796C15.7266 26.5571 15.8513 26.3857 15.92 26.188L23.92 3.30797C23.9881 3.12397 24.0046 2.92362 23.9674 2.73027C23.9302 2.53693 23.8409 2.35856 23.71 2.21597ZM15 22.9224L12.21 15.6424L17 10.6608L15.59 9.19437L10.76 14.2176L3.8 11.2744L21.33 4.69117L15 22.9224Z" fill="#8EC2F2"/>
</g>
<defs>
<clipPath id="clip0_964_17367">
<rect width="24" height="26" fill="white" transform="translate(0 0.874512)"/>
</clipPath>
</defs>
</svg>
